<mxfile host="app.diagrams.net" modified="2023-09-23T01:17:46.049Z" agent="Mozilla/5.0 (Windows NT 10.0; Win64; x64) AppleWebKit/537.36 (KHTML, like Gecko) Chrome/117.0.0.0 Safari/537.36" etag="2cELaQWoF8j2Gtd6oF45" version="21.8.1" type="device">
  <diagram name="Página-1" id="aC_4h1k0y_kjbSO7QHql">
    <mxGraphModel dx="957" dy="474" grid="1" gridSize="10" guides="1" tooltips="1" connect="1" arrows="1" fold="1" page="1" pageScale="1" pageWidth="827" pageHeight="1169" math="0" shadow="0">
      <root>
        <mxCell id="0" />
        <mxCell id="1" parent="0" />
        <mxCell id="CKOdoIwNOiDxa_bnxZwN-24" style="edgeStyle=orthogonalEdgeStyle;rounded=1;orthogonalLoop=1;jettySize=auto;html=1;entryX=1;entryY=0.5;entryDx=0;entryDy=0;endArrow=diamond;endFill=0;strokeWidth=1;endSize=6;labelBackgroundColor=none;strokeColor=#736CA8;fontColor=default;" edge="1" parent="1" source="CKOdoIwNOiDxa_bnxZwN-1" target="CKOdoIwNOiDxa_bnxZwN-10">
          <mxGeometry relative="1" as="geometry" />
        </mxCell>
        <mxCell id="CKOdoIwNOiDxa_bnxZwN-1" value="Cliente" style="swimlane;fontStyle=1;align=center;verticalAlign=top;childLayout=stackLayout;horizontal=1;startSize=26;horizontalStack=0;resizeParent=1;resizeParentMax=0;resizeLast=0;collapsible=1;marginBottom=0;whiteSpace=wrap;fillColor=#5D7F99;labelBackgroundColor=none;strokeColor=#D0CEE2;fontColor=#1A1A1A;rounded=1;" vertex="1" parent="1">
          <mxGeometry x="450" y="280" width="250" height="150" as="geometry">
            <mxRectangle x="200" y="100" width="60" height="30" as="alternateBounds" />
          </mxGeometry>
        </mxCell>
        <mxCell id="CKOdoIwNOiDxa_bnxZwN-2" value="- id_cliente: int&#xa;- nombre: string&#xa;- apellido: string&#xa;- lapiceros_alquilados: Lapicero[]" style="text;strokeColor=none;fillColor=none;align=left;verticalAlign=top;spacingLeft=4;spacingRight=4;overflow=hidden;rotatable=0;points=[[0,0.5],[1,0.5]];portConstraint=eastwest;whiteSpace=wrap;labelBackgroundColor=none;fontColor=#1A1A1A;rounded=1;" vertex="1" parent="CKOdoIwNOiDxa_bnxZwN-1">
          <mxGeometry y="26" width="250" height="74" as="geometry" />
        </mxCell>
        <mxCell id="CKOdoIwNOiDxa_bnxZwN-3" value="" style="line;strokeWidth=1;fillColor=none;align=left;verticalAlign=middle;spacingTop=-1;spacingLeft=3;spacingRight=3;rotatable=0;labelPosition=right;points=[];portConstraint=eastwest;strokeColor=#D0CEE2;labelBackgroundColor=none;fontColor=#1A1A1A;rounded=1;" vertex="1" parent="CKOdoIwNOiDxa_bnxZwN-1">
          <mxGeometry y="100" width="250" height="8" as="geometry" />
        </mxCell>
        <mxCell id="CKOdoIwNOiDxa_bnxZwN-4" value="+ alquilar_lapicero(lapicero: Lapicero): bool&#xa;+ devolver_lapicero(lapicero: Lapicero): bool" style="text;strokeColor=none;fillColor=none;align=left;verticalAlign=top;spacingLeft=4;spacingRight=4;overflow=hidden;rotatable=0;points=[[0,0.5],[1,0.5]];portConstraint=eastwest;whiteSpace=wrap;labelBackgroundColor=none;fontColor=#1A1A1A;rounded=1;" vertex="1" parent="CKOdoIwNOiDxa_bnxZwN-1">
          <mxGeometry y="108" width="250" height="42" as="geometry" />
        </mxCell>
        <mxCell id="CKOdoIwNOiDxa_bnxZwN-9" value="Lapicero" style="swimlane;fontStyle=1;align=center;verticalAlign=top;childLayout=stackLayout;horizontal=1;startSize=26;horizontalStack=0;resizeParent=1;resizeParentMax=0;resizeLast=0;collapsible=1;marginBottom=0;whiteSpace=wrap;html=1;labelBackgroundColor=none;fillColor=#5D7F99;strokeColor=#D0CEE2;fontColor=#1A1A1A;rounded=1;" vertex="1" parent="1">
          <mxGeometry x="180" y="450" width="160" height="108" as="geometry" />
        </mxCell>
        <mxCell id="CKOdoIwNOiDxa_bnxZwN-10" value="- id_lapicero: int&#xa;- marca: string&#xa;- color: string&#xa;- disponible: boolean" style="text;strokeColor=none;fillColor=none;align=left;verticalAlign=top;spacingLeft=4;spacingRight=4;overflow=hidden;rotatable=0;points=[[0,0.5],[1,0.5]];portConstraint=eastwest;whiteSpace=wrap;labelBackgroundColor=none;fontColor=#1A1A1A;rounded=1;" vertex="1" parent="CKOdoIwNOiDxa_bnxZwN-9">
          <mxGeometry y="26" width="160" height="74" as="geometry" />
        </mxCell>
        <mxCell id="CKOdoIwNOiDxa_bnxZwN-11" value="" style="line;strokeWidth=1;fillColor=none;align=left;verticalAlign=middle;spacingTop=-1;spacingLeft=3;spacingRight=3;rotatable=0;labelPosition=right;points=[];portConstraint=eastwest;strokeColor=#D0CEE2;labelBackgroundColor=none;fontColor=#1A1A1A;rounded=1;" vertex="1" parent="CKOdoIwNOiDxa_bnxZwN-9">
          <mxGeometry y="100" width="160" height="8" as="geometry" />
        </mxCell>
        <mxCell id="CKOdoIwNOiDxa_bnxZwN-22" style="edgeStyle=orthogonalEdgeStyle;rounded=1;orthogonalLoop=1;jettySize=auto;html=1;entryX=0.5;entryY=0;entryDx=0;entryDy=0;labelBackgroundColor=none;strokeColor=#736CA8;fontColor=default;" edge="1" parent="1" source="CKOdoIwNOiDxa_bnxZwN-13" target="CKOdoIwNOiDxa_bnxZwN-1">
          <mxGeometry relative="1" as="geometry" />
        </mxCell>
        <mxCell id="CKOdoIwNOiDxa_bnxZwN-13" value="App" style="swimlane;fontStyle=1;align=center;verticalAlign=top;childLayout=stackLayout;horizontal=1;startSize=26;horizontalStack=0;resizeParent=1;resizeParentMax=0;resizeLast=0;collapsible=1;marginBottom=0;whiteSpace=wrap;labelBackgroundColor=none;fillColor=#5D7F99;strokeColor=#D0CEE2;fontColor=#1A1A1A;rounded=1;" vertex="1" parent="1">
          <mxGeometry x="280" y="120" width="160" height="84" as="geometry" />
        </mxCell>
        <mxCell id="CKOdoIwNOiDxa_bnxZwN-14" value="- clientes: Cliente[]" style="text;strokeColor=none;fillColor=none;align=left;verticalAlign=top;spacingLeft=4;spacingRight=4;overflow=hidden;rotatable=0;points=[[0,0.5],[1,0.5]];portConstraint=eastwest;whiteSpace=wrap;labelBackgroundColor=none;fontColor=#1A1A1A;rounded=1;" vertex="1" parent="CKOdoIwNOiDxa_bnxZwN-13">
          <mxGeometry y="26" width="160" height="24" as="geometry" />
        </mxCell>
        <mxCell id="CKOdoIwNOiDxa_bnxZwN-15" value="" style="line;strokeWidth=1;fillColor=none;align=left;verticalAlign=middle;spacingTop=-1;spacingLeft=3;spacingRight=3;rotatable=0;labelPosition=right;points=[];portConstraint=eastwest;strokeColor=#D0CEE2;labelBackgroundColor=none;fontColor=#1A1A1A;rounded=1;" vertex="1" parent="CKOdoIwNOiDxa_bnxZwN-13">
          <mxGeometry y="50" width="160" height="8" as="geometry" />
        </mxCell>
        <mxCell id="CKOdoIwNOiDxa_bnxZwN-16" value="+ main()&#xa;" style="text;strokeColor=none;fillColor=none;align=left;verticalAlign=top;spacingLeft=4;spacingRight=4;overflow=hidden;rotatable=0;points=[[0,0.5],[1,0.5]];portConstraint=eastwest;whiteSpace=wrap;labelBackgroundColor=none;fontColor=#1A1A1A;rounded=1;" vertex="1" parent="CKOdoIwNOiDxa_bnxZwN-13">
          <mxGeometry y="58" width="160" height="26" as="geometry" />
        </mxCell>
        <mxCell id="CKOdoIwNOiDxa_bnxZwN-23" style="edgeStyle=orthogonalEdgeStyle;rounded=1;orthogonalLoop=1;jettySize=auto;html=1;exitX=0;exitY=0.5;exitDx=0;exitDy=0;entryX=0.5;entryY=0;entryDx=0;entryDy=0;labelBackgroundColor=none;strokeColor=#736CA8;fontColor=default;" edge="1" parent="1" source="CKOdoIwNOiDxa_bnxZwN-14" target="CKOdoIwNOiDxa_bnxZwN-9">
          <mxGeometry relative="1" as="geometry" />
        </mxCell>
        <mxCell id="CKOdoIwNOiDxa_bnxZwN-27" value="1" style="text;align=center;fontStyle=1;verticalAlign=middle;spacingLeft=3;spacingRight=3;strokeColor=none;rotatable=0;points=[[0,0.5],[1,0.5]];portConstraint=eastwest;html=1;labelBackgroundColor=none;fontColor=#1A1A1A;rounded=1;" vertex="1" parent="1">
          <mxGeometry x="520" y="430" width="80" height="26" as="geometry" />
        </mxCell>
        <mxCell id="CKOdoIwNOiDxa_bnxZwN-28" value="0..*" style="text;align=center;fontStyle=1;verticalAlign=middle;spacingLeft=3;spacingRight=3;strokeColor=none;rotatable=0;points=[[0,0.5],[1,0.5]];portConstraint=eastwest;html=1;labelBackgroundColor=none;fontColor=#1A1A1A;rounded=1;" vertex="1" parent="1">
          <mxGeometry x="320" y="490" width="80" height="26" as="geometry" />
        </mxCell>
      </root>
    </mxGraphModel>
  </diagram>
</mxfile>
